<svg width="32" height="28" viewBox="0 0 32 28" fill="none" xmlns="http://www.w3.org/2000/svg">
<path d="M14.0443 15.0314C13.6879 15.0157 13.3315 15 12.959 15C9.03888 15 5.37797 16.0529 2.25162 17.86C0.826134 18.6771 0 20.2171 0 21.8357V24.4286C0 25.2929 0.728942 26 1.61987 26H15C13.8559 24.4167 13.1647 22.5675 12.9968 20.6408C12.8289 18.7141 13.1903 16.7786 14.0443 15.0314Z" fill="black"/>
<path d="M12.5 13C16.0899 13 19 10.0899 19 6.5C19 2.91015 16.0899 0 12.5 0C8.91015 0 6 2.91015 6 6.5C6 10.0899 8.91015 13 12.5 13Z" fill="black"/>
<path d="M30.4826 20C30.4826 19.6473 30.4346 19.3267 30.3866 18.99L31.7303 17.8196C32.0182 17.5631 32.0822 17.1463 31.8903 16.8096L30.9465 15.1743C30.8561 15.0133 30.7117 14.8896 30.539 14.825C30.3662 14.7605 30.1763 14.7593 30.0027 14.8216L28.3071 15.3988C27.7952 14.9659 27.2194 14.6293 26.5795 14.3888L26.2276 12.6413C26.1899 12.4606 26.0915 12.2984 25.9489 12.1817C25.8062 12.065 25.6279 12.0009 25.4438 12H23.5562C23.1723 12 22.8524 12.2725 22.7724 12.6413L22.4205 14.3888C21.7806 14.6293 21.2048 14.9659 20.6929 15.3988L18.9973 14.8216C18.8236 14.7619 18.6345 14.7643 18.4624 14.8286C18.2903 14.893 18.1458 15.0152 18.0535 15.1743L17.1097 16.8096C16.9178 17.1463 16.9818 17.5631 17.2697 17.8196L18.6134 18.99C18.5654 19.3267 18.5174 19.6473 18.5174 20C18.5174 20.3527 18.5654 20.6733 18.6134 21.01L17.2697 22.1804C16.9818 22.4369 16.9178 22.8537 17.1097 23.1904L18.0535 24.8257C18.2455 25.1623 18.6454 25.3066 18.9973 25.1784L20.6929 24.6012C21.2048 25.0341 21.7806 25.3707 22.4205 25.6112L22.7724 27.3587C22.8524 27.7275 23.1723 28 23.5562 28H25.4438C25.8277 28 26.1476 27.7275 26.2276 27.3587L26.5795 25.6112C27.2194 25.3707 27.7952 25.0341 28.3071 24.6012L30.0027 25.1784C30.3706 25.3066 30.7545 25.1463 30.9465 24.8257L31.8903 23.1904C32.0822 22.8537 32.0182 22.4369 31.7303 22.1804L30.3866 21.01C30.4346 20.6733 30.4826 20.3527 30.4826 20ZM24.484 23.2064C22.7244 23.2064 21.2847 21.7635 21.2847 20C21.2847 18.2365 22.7244 16.7936 24.484 16.7936C26.2436 16.7936 27.6833 18.2365 27.6833 20C27.6833 21.7635 26.2436 23.2064 24.484 23.2064Z" fill="black"/>
</svg>
