<svg width="57" height="57" viewBox="0 0 57 57" fill="none" xmlns="http://www.w3.org/2000/svg">
<g clip-path="url(#clip0_377_598)">
<path d="M57 28.5C57.0051 32.358 56.2242 36.1766 54.7048 39.7229L54.6104 39.9404C52.0404 45.7871 47.5841 50.6031 41.9541 53.6182C36.3241 56.6334 29.8456 57.6736 23.5547 56.5724C23.3835 56.5421 23.2126 56.5106 23.042 56.478C21.2791 56.1363 19.5529 55.6272 17.8867 54.9577C17.616 54.849 17.3473 54.7362 17.0806 54.6196C16.8985 54.5403 16.7163 54.4586 16.5359 54.3742C11.5998 52.0865 7.42055 48.4353 4.4908 43.851C1.56105 39.2668 0.00289777 33.9405 0 28.5C0 12.7601 12.7601 0 28.5 0C44.2399 0 57 12.7601 57 28.5Z" fill="#6C63FF"/>
<path opacity="0.2" d="M23.5546 56.5725C23.3834 56.5422 23.2126 56.5107 23.0419 56.4781C22.9306 53.2478 22.5487 46.6178 21.2459 39.674C20.5334 35.8738 19.5444 31.9782 18.1725 28.4958C17.7025 27.2909 17.1657 26.1131 16.5645 24.9679C15.1783 22.3498 13.497 20.1456 11.4581 18.6523L11.7583 18.2426C13.454 19.4854 14.9779 21.2303 16.3301 23.4771C16.7357 24.15 17.1252 24.8678 17.4988 25.6306C17.8993 26.4468 18.2813 27.3134 18.6447 28.2302C18.8766 28.8137 19.1006 29.4174 19.3167 30.0414C20.2577 32.7506 21.0576 35.8417 21.7164 39.3148C21.8623 40.0822 22.0012 40.8683 22.133 41.6733C23.1541 47.9104 23.4619 53.677 23.5546 56.5725Z" fill="black"/>
<path opacity="0.2" d="M17.0805 54.6197C16.8984 54.5404 16.7163 54.4586 16.5358 54.3743C16.3596 52.4602 16.0358 50.0858 15.4439 47.832C15.1847 46.8197 14.8518 45.8277 14.4481 44.8639C13.7727 43.2829 12.8983 41.9389 11.7676 41.11L12.0678 40.701C13.2516 41.5679 14.1648 42.938 14.8705 44.541C15.6657 46.3471 16.196 48.4492 16.5493 50.4577C16.8116 51.9493 16.9768 53.3903 17.0805 54.6197Z" fill="black"/>
<path opacity="0.2" d="M8.62263 18.6405C10.0238 18.6405 11.1597 17.5046 11.1597 16.1035C11.1597 14.7023 10.0238 13.5664 8.62263 13.5664C7.22145 13.5664 6.08557 14.7023 6.08557 16.1035C6.08557 17.5046 7.22145 18.6405 8.62263 18.6405Z" fill="black"/>
<path opacity="0.2" d="M9.43964 40.4801C10.8408 40.4801 11.9767 39.3442 11.9767 37.9431C11.9767 36.5419 10.8408 35.406 9.43964 35.406C8.03847 35.406 6.90259 36.5419 6.90259 37.9431C6.90259 39.3442 8.03847 40.4801 9.43964 40.4801Z" fill="black"/>
<path opacity="0.2" d="M18.6949 20.365C18.1569 23.4003 19.3445 26.1487 19.3445 26.1487C19.3445 26.1487 21.4044 23.9759 21.9424 20.9406C22.4804 17.9054 21.2928 15.157 21.2928 15.157C21.2928 15.157 19.2329 17.3297 18.6949 20.365Z" fill="black"/>
<path opacity="0.2" d="M10.2632 27.57C13.1583 28.6287 16.0675 27.9493 16.0675 27.9493C16.0675 27.9493 14.2828 25.5535 11.3877 24.4949C8.49255 23.4363 5.58337 24.1156 5.58337 24.1156C5.58337 24.1156 7.36809 26.5114 10.2632 27.57Z" fill="black"/>
<path opacity="0.2" d="M9.7723 46.9097C11.8015 47.6517 13.8435 47.1676 13.8435 47.1676C13.8435 47.1676 12.5954 45.4805 10.5662 44.7385C8.53697 43.9965 6.495 44.4806 6.495 44.4806C6.495 44.4806 7.74306 46.1677 9.7723 46.9097Z" fill="black"/>
<path d="M28.4415 34.8112C34.5778 34.8112 39.5522 29.8367 39.5522 23.7004C39.5522 17.5641 34.5778 12.5896 28.4415 12.5896C22.3052 12.5896 17.3307 17.5641 17.3307 23.7004C17.3307 29.8367 22.3052 34.8112 28.4415 34.8112Z" fill="#D0CDE1"/>
<path d="M24.1013 32.2071C24.1013 32.2071 25.4902 38.8041 25.4902 39.4986C25.4902 40.193 32.0872 43.3179 32.0872 43.3179L37.9898 42.2763L40.0731 36.0264C40.0731 36.0264 36.601 30.8183 36.601 28.735L24.1013 32.2071Z" fill="#D0CDE1"/>
<path d="M54.7048 39.723L54.6104 39.9405C52.0404 45.7871 47.5841 50.6031 41.9541 53.6183C36.3241 56.6334 29.8456 57.6736 23.5547 56.5725C23.3835 56.5421 23.2126 56.5107 23.042 56.4781C21.2792 56.1363 19.5529 55.6273 17.8867 54.9578C17.616 54.849 17.3473 54.7363 17.0806 54.6197C16.8985 54.5404 16.7163 54.4586 16.5359 54.3743C14.9003 53.6166 13.3405 52.7052 11.8773 51.6525L10.5602 47.832L11.3005 47.267L12.8233 46.1043L14.4482 44.8639L14.8706 44.541L21.246 39.6741L21.7165 39.3149L25.0303 36.7853L25.0311 36.7845C25.0311 36.7845 28.6147 42.6236 33.8231 40.8874C39.0315 39.1513 38.9177 34.1731 38.9177 34.1731L54.7048 39.723Z" fill="#2F2E41"/>
<path d="M18.8062 14.7489C18.8062 14.7489 22.3338 7.10567 29.0951 8.86948C35.8565 10.6333 39.6781 13.279 39.972 15.9248C40.266 18.5705 39.825 22.5391 39.825 22.5391C39.825 22.5391 39.0901 17.1006 34.3866 18.2765C29.6831 19.4524 22.3338 18.5705 22.3338 18.5705L21.158 29.1534C21.158 29.1534 19.8351 27.2426 18.3653 28.4185C16.8954 29.5943 14.1027 17.1006 18.8062 14.7489Z" fill="#2F2E41"/>
<path d="M17.8867 54.9578C17.6161 54.849 17.3474 54.7363 17.0806 54.6196C16.8985 54.5404 16.7164 54.4586 16.5359 54.3743C13.8309 53.1199 11.3389 51.4498 9.15039 49.4247C9.92529 48.369 10.5602 47.8319 10.5602 47.8319H15.7686L16.5494 50.4576L17.8867 54.9578Z" fill="#2F2E41"/>
<path d="M50.1423 39.1512L54.6104 39.9405C53.4147 42.6644 51.7998 45.1843 49.8245 47.4087L50.1423 39.1512Z" fill="#2F2E41"/>
</g>
<defs>
<clipPath id="clip0_377_598">
<rect width="57" height="57" fill="white"/>
</clipPath>
</defs>
</svg>
