<svg width="32" height="32" viewBox="0 0 32 32" fill="none" xmlns="http://www.w3.org/2000/svg">
<path d="M14.8571 0V9.14286H0V6.85714C0 5.03852 0.722447 3.29437 2.00841 2.00841C3.29437 0.722447 5.03852 0 6.85714 0H14.8571ZM17.1429 0V20.5714H32V6.85714C32 5.03852 31.2776 3.29437 29.9916 2.00841C28.7056 0.722447 26.9615 0 25.1429 0H17.1429ZM32 22.8571H17.1429V32H25.1429C26.9615 32 28.7056 31.2776 29.9916 29.9916C31.2776 28.7056 32 26.9615 32 25.1429V22.8571ZM14.8571 32V11.4286H0V25.1429C0 26.9615 0.722447 28.7056 2.00841 29.9916C3.29437 31.2776 5.03852 32 6.85714 32H14.8571Z" fill="black"/>
</svg>
