<svg width="1440" height="683" viewBox="0 0 1440 683" fill="none" xmlns="http://www.w3.org/2000/svg">
<path d="M0 0L209.798 41.8873C263.327 52.5748 318.105 55.5954 372.485 50.8585C413.378 47.2964 454.534 48.1177 495.252 53.3084L579.28 64.0202C600.048 66.6676 620.523 71.2495 640.438 77.706C692.683 94.6438 748.282 98.5219 802.372 89.0012L849.25 80.75L978.5 58C1117.53 19.5102 1261.12 0 1405.38 0H1440V634L1078.4 663.993C926.377 676.603 773.335 667.956 623.696 638.303L555.008 624.691C371.446 588.315 182.239 591.489 0 634V0Z" fill="#1BD4FD"/>
</svg>
